#define font_battery_width 55
#define font_battery_height 8
static char font_battery_bits[] = {
  0x36, 0xEE, 0x9C, 0x2D, 0xCC, 0x30, 0x67, 0xD6, 0x66, 0x6B, 0xAD, 0xB7, 
  0xD7, 0x5A, 0xDB, 0xEA, 0x7B, 0xAD, 0xF7, 0xD7, 0x5A, 0xDB, 0xEE, 0x9D, 
  0x63, 0xC6, 0x3B, 0x67, 0xDD, 0xEE, 0x7E, 0xEF, 0xB5, 0xDD, 0x5E, 0xDD, 
  0x6E, 0x7F, 0xEF, 0xB5, 0xDD, 0x5E, 0xD6, 0x6E, 0x6F, 0xAF, 0xB5, 0xDE, 
  0x5E, 0x16, 0x43, 0x98, 0x6F, 0xCE, 0x3E, 0x67, };
