#define icon_battery_frame_width 25
#define icon_battery_frame_height 11
static char icon_battery_frame_bits[] = {
  0x00, 0x00, 0xC0, 0x01, 0xFE, 0xFF, 0xDF, 0x01, 0xFE, 0xFF, 0x1F, 0x00, 
  0xFE, 0xFF, 0xFF, 0x00, 0xFE, 0xFF, 0xFF, 0x00, 0xFE, 0xFF, 0xFF, 0x00, 
  0xFE, 0xFF, 0xFF, 0x00, 0xFE, 0xFF, 0xFF, 0x00, 0xFE, 0xFF, 0x1F, 0x00, 
  0xFE, 0xFF, 0xDF, 0x01, 0x00, 0x00, 0xC0, 0x01, };
