#define icon_battery_width 25
#define icon_battery_height 11
static char icon_battery_bits[] = {
  0xFF, 0xFF, 0xFF, 0x01, 0xFF, 0xFF, 0xFF, 0x01, 0x03, 0x00, 0xF0, 0x01, 
  0x03, 0x00, 0xF0, 0x01, 0x03, 0x00, 0x80, 0x01, 0x03, 0x00, 0x80, 0x01, 
  0x03, 0x00, 0x80, 0x01, 0x03, 0x00, 0xF0, 0x01, 0x03, 0x00, 0xF0, 0x01, 
  0xFF, 0xFF, 0xFF, 0x01, 0xFF, 0xFF, 0xFF, 0x01, };
