#define icon_light_width 11
#define icon_light_height 9
static char icon_light_bits[] = {
  0xF3, 0x07, 0x6D, 0x00, 0xEE, 0x07, 0x6E, 0x00, 0xEE, 0x07, 0x6E, 0x00, 
  0xEE, 0x07, 0x6D, 0x00, 0xF3, 0x07, };
