#define icon_walk_width 20
#define icon_walk_height 7
static char icon_walk_bits[] = {
  0xEE, 0xEE, 0x06, 0x6E, 0xED, 0x06, 0xAE, 0xEB, 0x0A, 0xAE, 0xEB, 0x0C, 
  0x2A, 0xE8, 0x0A, 0xA4, 0xEB, 0x06, 0xAE, 0x8B, 0x06, };
