#define icon_radio_width 9
#define icon_radio_height 8
static char icon_radio_bits[] = {
  0x7D, 0x01, 0xEE, 0x00, 0xAA, 0x00, 0xEE, 0x00, 0x6D, 0x01, 0xEF, 0x01, 
  0xEF, 0x01, 0xC7, 0x01, };
