#define icon_brake_width 14
#define icon_brake_height 7
static char icon_brake_bits[] = {
  0x18, 0x1B, 0xD6, 0x1A, 0xD6, 0x2A, 0x18, 0x33, 0xD6, 0x2A, 0xD6, 0x1A, 
  0xD8, 0x1A, };
